<?xml version="1.0" encoding="UTF-8"?>
<svg id="Capa_1" xmlns="http://www.w3.org/2000/svg" version="1.1" viewBox="0 0 928.72 195.64">
  <!-- Generator: Adobe Illustrator 29.5.1, SVG Export Plug-In . SVG Version: 2.1.0 Build 141)  -->
  <defs>
    <style>
      .st0 {
        fill: #018df4;
      }

      .st1 {
        fill: #fff;
      }

      .st2 {
        fill: #1d2555;
      }
    </style>
  </defs>
  <path class="st2" d="M847.37,49.78c27.07-1.57,50.29,19.09,51.9,46.16,1.61,27.07-19.01,50.32-46.08,51.97-27.12,1.65-50.44-19.02-52.05-46.15-1.61-27.13,19.1-50.41,46.23-51.98Z"/>
  <path class="st1" d="M850.69,66.12c1.98,1.98,30.43,55.61,32.36,59.57l-13.13-.07-3.25-5.98h-16.86s.14-10.76.14-10.76l7.61-.09c.94,0,1.91-.09,2.86-.15.4-1.38-7.28-15.98-8.63-18.8-8.03,7.74-17.47,15.79-25.89,23.25,6-13.32,17.76-33.74,24.8-46.98Z"/>
  <path class="st1" d="M846.77,96.76l.32.26c-.45,3.11-12.97,25.36-15.25,29.16-5.08-.24-10.09-.21-15.17-.22l-.68-.19c.7-1.72,27.21-25.69,30.78-29.01Z"/>
  <path class="st2" d="M443.75,66.94c11.58-1.42,19.2,1.93,28.07,8.73l.31-7.42,19.32.03.06,77.97-19.56.06-.49-7.62-5.02,4.02c-13.45,7.82-29.94,6.75-42.33-2.74-17.78-13.83-20.63-41.68-6.98-59.31,6.81-8.79,15.95-12.36,26.61-13.71Z"/>
  <path class="st1" d="M447.91,85.46c11.84-1.42,22.63,6.93,24.21,18.76,1.58,11.82-6.64,22.72-18.43,24.45-7.77,1.14-15.56-1.98-20.38-8.19-4.82-6.2-5.93-14.52-2.91-21.77,3.02-7.25,9.72-12.31,17.52-13.25Z"/>
  <path class="st0" d="M707.52,38.28c1.79-.05,2.73-.2,4.44.37.91,1.75.49,43.53.54,49.61,1.2-1.93,2.41-3.88,3.82-5.67,5.84-7.34,14.4-12.01,23.73-12.97,37.24-4.12,53.8,38.69,30.65,66.03-14.69,14.12-36.87,14.79-51.91.46-2.58-2.46-4.29-5.13-6.26-8.09-.09,3.89.62,15.17-.58,17.98-1.74.34-1.61.31-3.32-.2-2.19-2.54-1.03-6.22-1.03-9.58l-.11-22.44.04-75.52Z"/>
  <path class="st1" d="M742.46,74.79c18.23-1.11,33.92,12.74,35.08,30.97,1.16,18.23-12.65,33.96-30.88,35.16-18.29,1.21-34.09-12.66-35.26-30.96-1.16-18.3,12.75-34.06,31.05-35.17Z"/>
  <path class="st2" d="M101.09,29.57c1.64,1.88,13.99,25.83,16.06,29.75,15.32,28.92,30.5,57.92,45.51,87l-25.77-.03-6.12-12.53-31.56.11c.1-6.72-.03-13.77-.06-20.52h13.65s8.03-.07,8.03-.07c-5.38-11.36-11.8-25.52-17.92-36.25-16.21,14.87-33.28,29.48-49.77,44.19,1.88-3.85,3.92-7.93,5.97-11.68,14.33-26.25,27.24-53.97,41.98-79.96Z"/>
  <path class="st2" d="M264.26,39.16l.38.34c.84,2.89.37,24.13.4,28.55,8.41.05,16.82.05,25.23,0l.05,17.08-25.74.08c-.12,21.2-6.52,54.68,25.96,38.79l.29,18.71c-2.29,1.35-3.81,1.93-6.24,2.91-4.08,1.27-8.32,1.93-12.58,1.97-27.32.19-27.59-23.1-27.52-43.19v-19.17s-15.34-.05-15.34-.05c3.07-5.77,6.74-11.78,10.09-17.39,1.75.05,3.76.23,5.53.35.14-4.28.07-8.74.07-13.03,4.73-4.41,14.28-11.96,19.43-15.93Z"/>
  <path class="st2" d="M195.26,66.96c12.53.38,20,3.74,29.13,12.3-4.03,4.73-8.09,9.65-12.36,14.15-4.83-4.58-9.4-7.54-16.3-7.35-29.28.79-25.22,44.87,2.8,42.29,6.68-.62,12.39-5.73,16.4-10.83,2.69,2.61,5.4,5.2,8.13,7.77l5.19,4.8c-.74,1-1.51,1.97-2.32,2.92-7.41,8.59-16.47,13.45-27.76,14.06-54.39,2.96-58.64-76.84-2.92-80.11Z"/>
  <path class="st0" d="M651.8,69.42c.42-.04.84-.07,1.25-.1,18.15-1.13,33.26,8.74,37.81,26.84,1.08,4.29,1.19,7.91,1.4,12.33-8.43.46-18.26.2-26.77.18l-40.69.06c.53,5.49.84,8.89,2.94,14.02,3.07,7.63,9.13,13.67,16.78,16.7,9.59,3.86,18.05,2.78,27.29-1.12,7.12-3.91,9.71-8.07,13.85-14.68,1.44.56,2.95.86,3.67,2.09-.17,2.14-.86,3.5-2.18,5.23-6.57,8.6-13.6,13.75-24.33,15.46-9.78,1.56-19.78-.8-27.82-6.58-25.59-18.67-18.7-65.29,16.81-70.43Z"/>
  <path class="st1" d="M656.18,73.95c18.39,1.38,28.89,11.57,30.97,29.78l-30.48.04-31.65-.07c1.99-18.18,13.21-28.25,31.16-29.75Z"/>
  <path class="st2" d="M347.88,67.99c.53-.05,1.84,0,2.1.46,7.32,13.14,14.52,27.69,21.36,40.97,7.42-12.8,14.39-27.91,21.53-41.19l21.14.02c-6.61,11.1-13.89,26.08-19.91,37.71-7.64,13.88-15.28,29.43-22.56,43.56-4.89-7.83-11.2-20.73-15.68-29.29l-27.46-52.11c6.44.04,13.02-.08,19.48-.13Z"/>
  <path class="st0" d="M494.34,39.47c1.59-.1,2.68-.34,4.11.32,1.53,2.89,7.15,22.47,8.61,27.03,7.08,22.24,13.36,45.08,21.29,67.05.51-2.22,3.5-13.55,4.08-14.86,3.18-7.19,22.36-76.83,25.39-79.16,1.37-.25,1.33-.36,2.61.12,3.04,7.08,7.79,23.67,10.28,31.57,6.68,20.88,13.2,41.81,19.54,62.8,8.17-30.56,18.3-60.82,27.29-91.15.42-1.43,1.38-2.64,2.61-3.45,2.02-.05,1.34-.41,2.68.46.06,2.25-2.57,10.44-3.37,13.21l-18.35,60.47c-1.34,4.45-8.36,29.35-10.17,32.02l-1.19.07c-1.2-.74-1.53-1.8-1.94-3.12-9.78-31-18.93-62.35-29.04-93.23l-21.29,70.1c-1.29,4.2-7.02,23.74-8.7,26.16h-.87c-1.46-1.08-2.88-4.99-3.18-6.6-1.79-9.33-31.55-95.24-30.38-99.82Z"/>
  <path class="st2" d="M301.04,68.25h19.51s.12,77.38.12,77.38c-1.69,1.13-16.24.68-19.45.66-.2-26.01-.26-52.03-.18-78.04Z"/>
  <path class="st2" d="M93.85,90.69l.44.75c-7.69,16.43-19.69,39.17-28.54,55.16-10.49.19-21.59.03-32.16.11l-.38-.75c2.25-2.95,11.77-11.46,14.96-14.38,15.08-13.77,30.52-27.19,45.68-40.89Z"/>
  <path class="st2" d="M308.79,32.98c6.82-1.61,13.64,2.65,15.18,9.49,1.54,6.83-2.79,13.61-9.64,15.08-6.75,1.45-13.42-2.81-14.93-9.54-1.52-6.74,2.67-13.44,9.4-15.03Z"/>
</svg>