<?xml version="1.0" encoding="utf-8" ?><svg xmlns="http://www.w3.org/2000/svg" xmlns:xlink="http://www.w3.org/1999/xlink" width="1024" height="1024" viewBox="0 0 1024 1024"><path fill="white" d="M0 0L1024 0L1024 1024L0 1024L0 0Z"/><path fill="#1E2755" d="M550.751 484.198C564.029 483.886 571.203 486.365 581.662 494.618L581.719 485.878L604.978 485.654C605.431 516.835 604.962 549.076 604.91 580.339C597.142 580.11 589.37 580.036 581.599 580.116L581.456 570.252C578.604 573.016 577.312 574.08 574.086 576.405C568.992 579.176 564.242 581.069 558.421 581.573C494.686 587.092 485.804 488.411 550.751 484.198Z"/><path fill="white" d="M553.565 506.77C567.909 505.341 580.698 515.808 582.132 530.152C583.566 544.496 573.103 557.288 558.759 558.727C544.409 560.166 531.61 549.697 530.175 535.347C528.74 520.996 539.214 508.2 553.565 506.77Z"/><path fill="#3655EF" d="M869.008 448.499C870.838 448.44 872.584 448.232 874.302 448.816C874.852 452.441 874.73 464.324 874.774 468.75L875.108 508.703C876.347 506.824 877.942 504.438 879.36 502.739C887.364 493.314 898.789 487.46 911.114 486.47C955.642 482.943 975.41 535.022 947.646 567.008C929.606 585.329 899.884 585.5 881.956 566.434C879.526 563.85 877.557 561.263 875.424 558.425C875.046 565.629 875.102 573.19 875.056 580.43L869.535 579.968C869.277 551.089 869.223 522.209 869.375 493.33C869.398 479.798 869.923 461.589 869.008 448.499Z"/><path fill="white" d="M912.19 492.46C934.735 491.02 954.194 508.096 955.694 530.638C957.194 553.179 940.17 572.684 917.633 574.245C895.01 575.812 875.415 558.708 873.909 536.081C872.403 513.454 889.558 493.905 912.19 492.46Z"/><path fill="#1E2755" d="M137.621 439.336C139.847 442.01 152.804 468.21 155.336 472.988C174.448 508.589 193.265 544.347 211.785 580.259C201.477 580.047 191.167 579.978 180.857 580.052C178.378 574.901 175.64 569.878 172.653 565.003L135.417 564.679L135.422 540.297L154.801 540.404L161.292 540.309C154.36 524.942 147.342 511.073 139.721 496.013C129.274 505.271 119.168 515.035 108.559 524.314C99.4117 532.316 87.6309 541.593 79.1448 549.99C84.1857 541.734 89.8094 530.029 94.3336 521.292L120.625 471.372C125.615 461.83 132.203 448.26 137.621 439.336Z"/><path fill="#1E2755" d="M333.661 450.362C334.778 452.645 334.501 481.189 334.514 485.523C344.535 485.79 354.95 485.622 365.002 485.59L365.009 506.382L334.477 506.236C334.452 516.199 332.62 543.849 336.42 551.66C337.932 554.77 340.46 557.103 343.798 558.102C351.016 560.263 359.298 556.728 365.47 553.173L365.454 575.445C362.551 577.434 361.899 577.761 358.627 579.09C341.467 584.35 321.985 582.63 313.843 563.979C309.276 553.519 310.136 542.676 310.132 531.493L310.149 506.484C304.042 506.349 297.61 506.45 291.477 506.461C295.287 499.404 299.23 492.419 303.303 485.51L310.3 485.651L310.475 470.094C318.262 463.585 325.991 457.008 333.661 450.362Z"/><path fill="#1E2755" d="M244.954 484.673C261.886 482.354 273.506 488.436 286.116 498.805C281.57 504.399 275.79 511.056 270.744 516.132C270.336 515.695 269.924 515.262 269.507 514.835C264.712 509.932 258.487 507.636 251.744 507.717C237.177 508.301 227.114 517.083 227.05 532.168C226.961 553.363 248.912 566.216 266.632 553.561C269.922 551.212 272.032 548.761 274.775 545.633L281.343 552.266C284.168 555.06 287.548 557.909 290.555 560.555C281.995 571.376 272.319 578.517 258.412 580.724C245.395 582.907 232.048 579.733 221.407 571.923C211.772 564.914 204.59 552.266 202.878 540.557C200.965 527.603 204.397 514.428 212.386 504.053C220.737 493.043 231.332 486.595 244.954 484.673Z"/><path fill="#3655EF" d="M802.33 486.186C815.074 484.895 827.88 489.6 836.92 498.584C847.375 508.975 849.709 519.918 849.898 534.143L766.921 534.094C767.541 551.326 776.468 568.093 793.839 573.329C804.828 576.725 816.716 575.607 826.879 570.224C835.029 565.29 837.651 561.077 842.13 552.927L847.23 554.755C826.969 598.046 766.319 584.84 761.486 539.609C758.681 513.356 775.029 489.028 802.33 486.186Z"/><path fill="white" d="M802.259 492.179C810.398 491.169 821.959 494.001 828.454 499.112C839.223 507.587 842.291 515.315 844.317 528.171C833.254 528.328 822.19 528.414 811.125 528.427C796.436 528.469 781.747 528.327 767.061 528.002C769.868 508.396 782.287 494.46 802.259 492.179Z"/><path fill="#1E2755" d="M410.629 485.579C419.032 485.576 427.685 485.465 436.058 485.838L461.866 535.143C471.176 519.883 478.495 500.969 487.864 485.864C495.925 485.753 504.33 485.927 512.417 485.981C507.037 496.666 501.508 507.274 495.829 517.803C490.65 529.039 483.809 540.895 478.143 551.978C472.814 562.402 467.671 573.181 461.766 583.271C457.416 576.608 449.58 559.562 445.227 551.586C433.381 529.876 421.574 507.747 410.629 485.579Z"/><path fill="#3655EF" d="M607.072 450.972L613.052 450.888C624.366 488.341 636.23 528.505 648.824 565.558C657.363 534.123 668.941 502.843 678.025 471.497C679.975 464.769 682.102 457.7 684.538 451.155C685.773 450.727 687.428 450.77 688.605 451.401C690.052 452.176 720.831 554.583 724.944 565.743C729.617 547.451 737.418 524.225 743.119 505.833L754.374 469.663C755.924 464.678 757.364 459.66 758.919 454.68C760.126 450.813 761.716 450.777 765.209 451.219C764.839 454.189 762.173 462.331 761.195 465.579C759.446 472.616 756.271 482.084 754.128 489.169L737.001 544.527C735.927 548.026 726.269 579.999 725.689 580.51C723.932 580.64 724.669 580.868 723.334 580.114L696.281 493.472C693.337 483.747 689.082 472.01 686.813 462.361C684.915 469.823 682.565 476.052 680.222 483.348C676.335 495.494 672.51 507.66 668.747 519.845C663.838 536.043 659.172 553.181 653.175 569.078C651.866 572.547 651.784 579.288 648.273 580.613C646.982 579.653 641.435 560.574 640.512 557.666L607.072 450.972Z"/><path fill="#1E2755" d="M377.807 486.04C385.697 486.048 393.586 485.989 401.476 485.863L401.601 580.227C393.82 580.162 385.969 580.245 378.181 580.276L377.807 486.04Z"/><path fill="#1E2755" d="M129.801 511.967C129.89 514.419 98.3069 573.607 94.4049 580.509C81.0652 580.287 67.723 580.265 54.3826 580.443C54.8971 578.545 123.345 518.07 129.801 511.967Z"/><path fill="#1E2755" d="M388.985 443.181C397.295 442.202 404.838 448.114 405.873 456.417C406.908 464.721 401.047 472.304 392.751 473.395C384.375 474.497 376.703 468.568 375.658 460.184C374.613 451.8 380.594 444.169 388.985 443.181Z"/></svg>