<svg xmlns="http://www.w3.org/2000/svg" version="1.1" id="Capa_1" viewBox="0 0 125 118.73" width="125" height="118.73"><metadata><rdf:RDF xmlns:rdf="http://www.w3.org/1999/02/22-rdf-syntax-ns#" xmlns:dc="http://purl.org/dc/elements/1.1/"><rdf:Description><dc:creator>RealFaviconGenerator</dc:creator><dc:source>https://realfavicongenerator.net</dc:source></rdf:Description></rdf:RDF></metadata><defs>
    <style>
      .st0 {
        fill: #fff;
      }

      .st1 {
        fill: #1d2555;
      }
    </style>
  </defs><path class="st1" d="M61.37,10.62c27.07-1.57,50.29,19.09,51.9,46.16,1.61,27.07-19.01,50.32-46.08,51.97-27.12,1.65-50.44-19.02-52.05-46.15S34.24,12.19,61.37,10.62Z"></path><path class="st0" d="M64.69,26.96c1.98,1.98,30.43,55.61,32.36,59.57l-13.13-.07-3.25-5.98h-16.86l.14-10.76,7.61-.09c.94,0,1.91-.09,2.86-.15.4-1.38-7.28-15.98-8.63-18.8-8.03,7.74-17.47,15.79-25.89,23.25,6-13.32,17.76-33.74,24.8-46.98h0Z"></path><path class="st0" d="M60.77,57.6l.32.26c-.45,3.11-12.97,25.36-15.25,29.16-5.08-.24-10.09-.21-15.17-.22l-.68-.19c.7-1.72,27.21-25.69,30.78-29.01h0Z"></path></svg>